<svg xmlns="http://www.w3.org/2000/svg" width="400" height="400" fill="none" viewBox="0 0 400 400">
  <path fill="#fff" d="M0 0h400v400H0z"/>
  <path fill="#000" d="m60 187.5 10.5-20.7 51.3 27.9v22.65l-51.3 27.9L60 222.9l37.65-17.25zm18.264 69h132V279h-132zm153.849-13.95h36V279h-36zm18 9.45q-32.7 0-52.65-5.7-19.95-5.85-29.1-17.1-9-11.4-9-28.2t9-28.05q9.15-11.4 29.1-17.1 19.95-5.85 52.65-5.85t52.65 5.85q19.95 5.7 28.95 17.1 9.15 11.25 9.15 28.05t-9.15 28.2q-9 11.25-28.95 17.1-19.95 5.7-52.65 5.7m0-28.5q15.45 0 26.7-1.8 11.25-1.95 17.4-6.75 6.15-4.95 6.15-13.95t-6.15-13.8q-6.15-4.95-17.4-6.75-11.25-1.95-26.7-1.95t-27.15 1.95q-11.55 1.8-18.15 6.75-6.45 4.8-6.45 13.8t6.45 13.95q6.6 4.8 18.15 6.75 11.7 1.8 27.15 1.8"/>
</svg>
