<svg width="512" height="512" viewBox="0 0 512 512" fill="none" xmlns="http://www.w3.org/2000/svg">
  <defs>
    <linearGradient id="g" x1="0" y1="0" x2="512" y2="512" gradientUnits="userSpaceOnUse">
      <stop stop-color="#14B8A6"/>
      <stop offset="1" stop-color="#0B7A70"/>
    </linearGradient>
  </defs>
  <rect x="32" y="32" width="448" height="448" rx="120" fill="url(#g)"/>
  <rect x="32" y="32" width="448" height="448" rx="120" fill="white" fill-opacity="0.08"/>
  <path d="M176 150h150a26 26 0 0 1 0 52H202v54h104a26 26 0 0 1 0 52H202v54h124a26 26 0 0 1 0 52H176a26 26 0 0 1-26-26V176a26 26 0 0 1 26-26z" fill="white"/>
  <circle cx="372" cy="360" r="40" fill="#F97316"/>
</svg>
